<svg width="512" height="512" viewBox="0 0 512 512" fill="none" xmlns="http://www.w3.org/2000/svg">
<path d="M264.552 242.629L395.683 152.966C418.182 122.78 420.678 99.3591 407.086 46L285.457 148.247C261.571 111.336 241.129 97.3211 182.833 93.191C121.415 95.1748 92.9324 130.955 46 217.461C152.594 275.098 183.52 338.917 226.543 466C232.145 399.077 240.65 371.87 270.253 351.169C278.255 346.287 296.684 338.217 351.973 310.27C387.348 346.713 411.663 357.966 466 355.888C421.123 341.181 400.451 331.062 376.679 289.82L386.181 280.382C394.772 266.008 391.461 238.553 389.982 200.157L329.167 247.348C302.551 240.313 288.927 241.241 264.552 242.629ZM264.552 242.629C245.346 258.179 237.242 268.284 226.543 288.247M226.543 288.247C212.707 319.161 215.271 347.429 213.24 381.056C219.565 338.483 228.426 309.743 260.751 289.82L226.543 288.247ZM127.719 206.449C169.471 234.054 181.199 254.325 192.335 294.539C195.285 244.111 201.562 218.221 239.846 186C225.851 166.25 212.577 160.853 182.833 157.685C150.683 164.549 138.384 174.959 127.719 206.449Z" stroke="black" stroke-width="24"/>
</svg>
